<?xml version="1.0" standalone="no"?>
<!DOCTYPE svg PUBLIC "-//W3C//DTD SVG 20010904//EN"
 "http://www.w3.org/TR/2001/REC-SVG-20010904/DTD/svg10.dtd">
<svg version="1.0" xmlns="http://www.w3.org/2000/svg"
 width="450.000000pt" height="450.000000pt" viewBox="0 0 450.000000 450.000000"
 preserveAspectRatio="xMidYMid meet">
<metadata>
Created by potrace 1.15, written by Peter Selinger 2001-2017
</metadata>
<g transform="translate(0.000000,450.000000) scale(0.100000,-0.100000)"
fill="#000000" stroke="none">
<path d="M1530 3835 c-158 -28 -299 -88 -426 -183 -241 -179 -384 -443 -407
-749 l-4 -53 77 0 77 0 13 92 c29 211 107 368 256 513 113 110 263 189 423
221 101 20 281 15 376 -10 92 -25 252 -109 331 -175 260 -217 366 -588 259
-906 -13 -38 -123 -288 -245 -555 -122 -267 -269 -588 -327 -715 -121 -265
-145 -307 -219 -374 -120 -109 -304 -157 -464 -120 -205 47 -364 228 -395 451
l-6 48 -78 0 -78 0 4 -52 c7 -82 32 -167 70 -242 232 -465 873 -507 1162 -77
52 77 707 1517 736 1618 146 500 -124 1035 -614 1219 -158 60 -355 78 -521 49z"/>
<path d="M1582 3509 c-198 -33 -392 -178 -481 -361 -53 -107 -71 -182 -71
-289 l0 -86 84 -6 c148 -12 275 -67 363 -159 85 -88 143 -232 143 -352 0 -270
-195 -487 -468 -521 l-53 -7 3 -76 3 -77 50 3 c266 17 514 215 595 477 33 107
38 240 11 345 -33 135 -82 221 -181 321 -96 97 -192 153 -319 184 l-72 17 7
32 c69 323 435 501 729 354 161 -81 259 -218 286 -403 22 -144 29 -124 -415
-1094 -74 -162 -133 -298 -131 -301 6 -9 135 -63 140 -59 2 2 99 213 216 469
363 796 352 768 351 932 -2 185 -65 332 -201 469 -69 69 -103 93 -171 127
-133 64 -274 85 -418 61z"/>
<path d="M3361 3137 l-54 -55 50 -59 c309 -359 377 -861 174 -1286 -40 -84
-117 -200 -175 -265 l-48 -52 38 -43 c67 -75 65 -75 130 -4 147 159 256 381
306 625 27 135 29 341 4 482 -43 243 -158 481 -313 648 l-58 63 -54 -54z"/>
<path d="M3122 2900 l-52 -57 21 -19 c12 -10 41 -46 64 -79 188 -265 212 -596
65 -886 -33 -65 -94 -152 -128 -183 l-21 -18 51 -59 c28 -33 55 -59 59 -59 16
0 136 161 176 237 80 152 114 289 115 463 2 257 -76 472 -245 673 -22 26 -43
46 -46 46 -3 -1 -30 -27 -59 -59z"/>
<path d="M2891 2666 l-54 -55 33 -37 c84 -96 131 -263 111 -394 -16 -103 -45
-166 -126 -275 -14 -20 -11 -24 41 -75 l55 -55 39 45 c159 186 198 490 90 715
-31 65 -114 185 -128 185 -4 0 -32 -24 -61 -54z"/>
</g>
</svg>
